<?xml version="1.0" standalone="no"?>
<!DOCTYPE svg PUBLIC "-//W3C//DTD SVG 20010904//EN"
 "http://www.w3.org/TR/2001/REC-SVG-20010904/DTD/svg10.dtd">
<svg version="1.0" xmlns="http://www.w3.org/2000/svg"
 width="256.000000pt" height="256.000000pt" viewBox="0 0 256.000000 256.000000"
 preserveAspectRatio="xMidYMid meet">
<metadata>
Created by potrace 1.11, written by Peter Selinger 2001-2013
</metadata>
<g transform="translate(0.000000,256.000000) scale(0.100000,-0.100000)"
fill="#000000" stroke="none">
<path d="M779 1855 c-2 -1 -35 -6 -74 -9 -38 -4 -77 -9 -85 -11 -8 -2 -44 -6
-80 -10 -142 -13 -197 -41 -233 -117 -12 -26 -31 -51 -44 -57 -12 -6 -36 -35
-54 -66 -29 -52 -33 -55 -70 -55 -36 0 -40 -3 -45 -30 -4 -16 -10 -30 -15 -30
-15 0 -11 -178 3 -182 10 -4 13 -48 14 -169 1 -242 2 -249 19 -249 13 0 13 -4
-2 -26 -14 -22 -17 -52 -17 -172 l-1 -146 155 -43 c85 -24 269 -73 409 -109
l253 -67 52 16 c50 16 55 16 145 -8 132 -36 178 -34 235 10 25 19 219 116 432
216 l386 181 45 -11 c33 -9 54 -9 78 -1 51 17 102 80 121 150 10 32 21 57 26
54 5 -3 29 2 54 12 l46 17 -5 158 c-5 153 -18 219 -37 189 -5 -8 -226 -93
-492 -191 -454 -166 -483 -175 -486 -155 -2 11 -10 28 -17 36 -17 20 -28 267
-11 274 7 3 7 5 -1 5 -10 1 -13 47 -13 197 0 195 -6 234 -35 234 -12 0 -15 14
-15 60 0 68 -8 76 -80 78 -29 1 -38 -2 -27 -6 13 -5 -35 -20 -145 -45 -156
-35 -167 -36 -246 -25 -78 10 -81 11 -63 27 32 26 65 51 84 65 16 10 4 12 -71
13 -50 1 -92 0 -93 -2z m-563 -381 c-31 -73 -51 -161 -58 -258 l-3 -39 350
-65 c193 -35 354 -67 358 -72 5 -4 -2 -6 -15 -4 -89 15 -667 115 -685 119 -28
6 -29 40 -9 156 12 68 83 255 93 246 2 -3 -12 -40 -31 -83z m351 36 c301 -44
337 -50 330 -56 -3 -4 -588 80 -627 90 -54 13 56 1 297 -34z m38 -30 c149 -22
275 -43 281 -45 8 -2 7 -24 -3 -77 -8 -40 -18 -123 -21 -184 l-7 -111 -107 21
-107 21 99 122 c55 67 96 124 91 127 -21 13 -162 28 -216 23 -72 -7 -250 -69
-365 -126 l-81 -41 6 47 c15 112 26 158 52 215 l27 60 40 -5 c23 -3 163 -24
311 -47z m-435 33 c0 -5 -9 -30 -20 -58 -15 -40 -19 -45 -20 -24 0 15 -7 29
-15 33 -15 5 -21 37 -8 49 9 9 63 9 63 0z m1117 -25 c-3 -7 -5 -2 -5 12 0 14
2 19 5 13 2 -7 2 -19 0 -25z m-17 -31 c0 -42 -1 -43 -42 -53 -24 -6 -57 -17
-75 -25 -33 -13 -60 -4 -33 11 9 5 44 31 79 59 35 28 65 51 67 51 2 0 4 -19 4
-43z m27 -79 c-2 -18 -4 -4 -4 32 0 36 2 50 4 33 2 -18 2 -48 0 -65z m-241 17
c-4 -10 1 -15 17 -16 12 0 16 -3 10 -6 -7 -2 -13 -19 -13 -36 0 -19 -13 -51
-30 -77 l-31 -45 7 45 c7 57 33 150 40 150 4 0 4 -7 0 -15z m38 -81 c-3 -51
-14 -56 -14 -6 0 23 3 42 8 42 4 0 7 -16 6 -36z m176 -14 l0 -50 -52 -24 c-29
-12 -54 -19 -56 -15 -3 7 97 139 105 139 2 0 3 -23 3 -50z m20 -18 l0 -58 -55
-23 c-57 -24 -105 -70 -105 -101 0 -10 -5 -22 -12 -26 -8 -5 -9 -2 -5 10 4 10
7 24 7 31 0 27 58 80 109 100 l51 19 0 53 c0 29 2 53 5 53 3 0 5 -26 5 -58z
m-200 -167 c0 -8 -9 -19 -21 -25 -20 -11 -20 -11 -4 14 20 30 25 32 25 11z
m1130 -4 c0 -25 -26 -51 -51 -51 -25 0 -24 12 6 44 29 31 45 33 45 7z m-1715
-132 c143 -29 264 -56 269 -60 25 -22 -19 -17 -226 25 -319 65 -328 67 -328
77 0 14 6 13 285 -42z m1808 34 c-7 -2 -19 -2 -25 0 -7 3 -2 5 12 5 14 0 19
-2 13 -5z m-55 -23 c-11 -17 -10 -22 0 -29 10 -6 9 -10 -7 -14 -16 -4 -21 -13
-21 -36 0 -42 26 -41 46 2 l14 32 -2 -30 c-2 -21 -11 -34 -33 -45 -16 -8 -33
-19 -37 -25 -12 -16 -9 70 3 102 9 25 37 63 46 63 2 0 -2 -9 -9 -20z m90 -5
c-3 -3 -9 2 -12 12 -6 14 -5 15 5 6 7 -7 10 -15 7 -18z m-1844 -46 c144 -28
265 -55 270 -59 28 -26 -23 -22 -224 21 -124 27 -249 53 -277 59 -29 6 -53 16
-53 21 0 14 3 13 284 -42z m1403 -116 c-2 -32 -3 -8 -3 52 0 61 1 87 3 58 2
-29 2 -78 0 -110z m444 55 c-20 -65 -91 -100 -122 -60 -13 15 -12 16 2 4 14
-11 21 -8 43 18 14 17 31 48 37 70 8 26 16 37 25 33 9 -3 15 2 15 13 1 11 4 6
6 -11 3 -16 0 -46 -6 -67z m-1838 18 c142 -30 261 -56 264 -59 28 -29 -63 -14
-484 79 -40 9 -70 20 -67 25 8 13 5 13 287 -45z m195 -82 c39 -8 72 -20 72
-25 0 -5 -3 -9 -8 -9 -22 0 -498 113 -506 120 -7 7 190 -31 442 -86z m-151
-34 c194 -41 349 -77 345 -81 -6 -6 -708 142 -736 156 -20 10 37 -1 391 -75z
m529 45 c-40 -37 -64 -32 -29 7 9 10 25 18 36 18 18 0 17 -2 -7 -25z m-900
-35 c10 0 14 -14 14 -51 l0 -51 -37 7 c-52 10 -53 10 -53 62 l0 46 31 -7 c17
-3 38 -6 45 -6z m309 -128 c143 -36 262 -66 264 -68 21 -19 -47 -7 -274 46
l-265 64 1 35 c1 31 2 33 8 11 6 -23 23 -28 266 -88z m687 28 c-32 -30 -72
-40 -72 -18 0 6 19 29 42 51 41 39 42 39 51 18 8 -17 5 -26 -21 -51z m-994
-26 c7 -2 12 -21 12 -49 0 -48 -3 -50 -59 -39 -29 6 -31 9 -31 49 0 23 3 45 6
48 6 6 37 2 72 -9z m671 -20 c30 -6 31 -9 31 -55 0 -53 -4 -56 -69 -43 -30 6
-31 9 -31 55 0 53 4 56 69 43z m-364 -111 c142 -35 261 -65 263 -68 17 -17
-31 -8 -268 49 l-265 62 -2 35 c-2 28 -1 30 5 9 7 -22 25 -28 267 -87z m768
77 c-36 -22 -43 -40 -15 -41 13 0 12 -2 -5 -9 -23 -9 -40 -51 -28 -69 16 -26
55 -1 58 38 2 25 17 17 17 -10 0 -27 -35 -59 -65 -59 -14 0 -25 -3 -25 -6 0
-15 22 -44 34 -44 22 0 66 59 78 106 11 38 14 42 31 32 18 -9 19 -7 15 20 -2
17 -1 29 4 26 14 -9 9 -95 -8 -130 -49 -104 -164 -93 -164 15 1 65 54 151 95
151 5 0 -5 -9 -22 -20z m-410 -96 c37 -7 37 -7 37 -55 0 -26 -3 -50 -7 -52 -5
-2 -27 0 -50 5 l-43 9 0 50 c0 53 0 53 63 43z"/>
<path d="M1003 1843 c9 -2 25 -2 35 0 9 3 1 5 -18 5 -19 0 -27 -2 -17 -5z"/>
<path d="M1163 1833 c9 -2 25 -2 35 0 9 3 1 5 -18 5 -19 0 -27 -2 -17 -5z"/>
<path d="M2168 1363 c7 -3 16 -2 19 1 4 3 -2 6 -13 5 -11 0 -14 -3 -6 -6z"/>
<path d="M2218 1353 c7 -3 16 -2 19 1 4 3 -2 6 -13 5 -11 0 -14 -3 -6 -6z"/>
<path d="M2268 1343 c7 -3 16 -2 19 1 4 3 -2 6 -13 5 -11 0 -14 -3 -6 -6z"/>
<path d="M2328 1333 c7 -3 16 -2 19 1 4 3 -2 6 -13 5 -11 0 -14 -3 -6 -6z"/>
<path d="M2378 1323 c7 -3 16 -2 19 1 4 3 -2 6 -13 5 -11 0 -14 -3 -6 -6z"/>
<path d="M2428 1313 c7 -3 16 -2 19 1 4 3 -2 6 -13 5 -11 0 -14 -3 -6 -6z"/>
</g>
</svg>
